<?xml version="1.0" encoding="utf-8"?>
<!-- Generator: Adobe Illustrator 16.0.0, SVG Export Plug-In . SVG Version: 6.00 Build 0)  -->
<!DOCTYPE svg PUBLIC "-//W3C//DTD SVG 1.1//EN" "http://www.w3.org/Graphics/SVG/1.1/DTD/svg11.dtd">
<svg version="1.1" id="svg4007" xmlns="http://www.w3.org/2000/svg" xmlns:xlink="http://www.w3.org/1999/xlink" x="0px" y="0px"
	 width="233px" height="50px" viewBox="0 0 233 50" enable-background="new 0 0 233 50" xml:space="preserve">
<g>
	<g>
		<g>
			<path fill="#0E47AB" d="M11.233,40.679c-1.673,0.172-3.086,0.182-4.294,0.074c4.843,4.979,11.799,7.828,19.262,7.186
				c8.369-0.719,15.357-5.654,19.066-12.531C36.504,29.778,20.56,39.714,11.233,40.679z M48.042,22
				C46.905,8.807,35.288-0.967,22.089,0.167C8.893,1.302-0.886,12.916,0.25,26.108c0.395,4.592,2.063,8.768,4.624,12.217
				c0.893,0.125,1.941,0.164,3.206,0.057c7.436-0.641,22.58-10.008,32.813-11.248c3.664-0.444,5.713,0.275,6.795,1.5
				C48.102,26.499,48.236,24.274,48.042,22z M16.53,32.819c-2.625,1.066-5.059,1.955-7.161,2.486
				c1.69-4.463,1.32-10.478-1.48-16.555c-0.458-0.993-0.963-1.953-1.511-2.875c2.5,0.159,5.794,0.994,8.875,2.52
				C17.406,23.649,17.748,28.776,16.53,32.819z M26.256,28.69c-2.483,1.047-4.947,2.127-7.303,3.123
				c1.538-4.422,1.124-10.275-1.601-16.194c-0.457-0.992-0.963-1.952-1.511-2.875c2.5,0.16,5.794,0.994,8.873,2.521
				C26.694,20.095,27.143,24.818,26.256,28.69z M42.605,23.553c-0.108,0.013-0.206,0.017-0.316,0.03
				c-4.203,0.509-9.168,2.283-14.154,4.326c1.431-4.389,0.98-10.125-1.69-15.924c-0.46-0.994-0.965-1.954-1.512-2.875
				c5.215,0.332,13.891,3.565,16.853,9.997C42.521,20.702,42.708,22.211,42.605,23.553z"/>
		</g>
	</g>
	<g>
		<g>
			<path d="M67.729,15.359h-3.294v-9.37h-4.595v22.854h4.595V18.647h3.294v10.195h4.62V5.989h-4.62V15.359z M84.675,16.565
				c0-1.27-0.476-2.365-1.426-3.288c-0.951-0.923-2.058-1.384-3.32-1.384c-1.81,0-3.189,0.51-4.14,1.53
				c-0.951,1.02-1.427,2.482-1.427,4.386h4.128V16.87c0-0.262,0.008-0.472,0.025-0.628c0.017-0.157,0.055-0.332,0.114-0.527
				s0.162-0.34,0.309-0.438c0.147-0.097,0.339-0.146,0.575-0.146c0.345,0,0.589,0.144,0.732,0.432
				c0.143,0.288,0.214,0.724,0.214,1.308v1.396c-0.572,0.237-1.047,0.442-1.426,0.615c-0.378,0.174-0.808,0.39-1.288,0.647
				c-0.479,0.259-0.873,0.509-1.18,0.749c-0.307,0.242-0.623,0.536-0.946,0.883c-0.324,0.348-0.577,0.709-0.758,1.085
				c-0.181,0.377-0.33,0.812-0.448,1.302c-0.118,0.491-0.177,1.024-0.177,1.6c0,0.508,0.061,0.993,0.183,1.456
				c0.122,0.461,0.311,0.893,0.568,1.293c0.257,0.402,0.612,0.723,1.066,0.959c0.455,0.236,0.985,0.355,1.591,0.355
				c0.824,0,1.515-0.154,2.07-0.463c0.556-0.31,0.955-0.849,1.199-1.619l0.417,1.715h3.888c-0.362-1.574-0.542-3.043-0.542-4.407
				L84.675,16.565L84.675,16.565z M80.472,25.097c-0.151,0.195-0.265,0.334-0.341,0.42c-0.076,0.084-0.2,0.184-0.372,0.297
				c-0.173,0.115-0.347,0.172-0.524,0.172c-0.312,0-0.532-0.121-0.663-0.361c-0.131-0.242-0.196-0.531-0.196-0.871
				c0-1.354,0.698-2.599,2.095-3.731L80.472,25.097L80.472,25.097z M86.948,28.843h4.254V5.989h-4.254V28.843z M98.339,11.905
				c-1.759,0-3.053,0.489-3.881,1.466c-0.829,0.978-1.243,2.351-1.243,4.12v7.046c0,0.915,0.238,1.735,0.713,2.458
				c0.476,0.725,1.101,1.273,1.875,1.65c0.774,0.377,1.62,0.564,2.537,0.564c1.422,0,2.643-0.435,3.661-1.302
				c1.018-0.866,1.527-1.989,1.527-3.372V17.49c0-1.769-0.425-3.142-1.275-4.12C101.402,12.396,100.098,11.905,98.339,11.905z
				 M99.312,24.589c0,0.932-0.324,1.396-0.972,1.396c-0.202,0-0.366-0.041-0.492-0.127c-0.126-0.084-0.214-0.209-0.265-0.373
				c-0.05-0.166-0.082-0.311-0.095-0.434c-0.012-0.123-0.019-0.276-0.019-0.463v-8.202c0-0.838,0.29-1.257,0.871-1.257
				c0.648,0,0.972,0.419,0.972,1.257V24.589z M114.551,12.458c-0.458-0.368-0.978-0.552-1.559-0.552
				c-0.615,0-1.206,0.14-1.773,0.419c-0.568,0.279-1.054,0.651-1.458,1.117v-1.168h-4.254v16.568h4.254v-12.85l0.088-0.102
				c0.05-0.059,0.084-0.1,0.101-0.121c0.017-0.021,0.055-0.063,0.114-0.127c0.059-0.062,0.103-0.107,0.133-0.133
				c0.029-0.025,0.073-0.063,0.132-0.114c0.059-0.051,0.109-0.087,0.151-0.108c0.042-0.021,0.09-0.046,0.145-0.076
				c0.055-0.03,0.109-0.052,0.165-0.064c0.054-0.013,0.107-0.019,0.158-0.019c0.471,0,0.707,0.368,0.707,1.104v12.607h4.253V15.486
				c0-0.575-0.111-1.132-0.334-1.669C115.35,13.279,115.01,12.825,114.551,12.458z M125.91,12.946
				c-0.656-0.702-1.633-1.054-2.928-1.054c-0.867,0-1.631,0.174-2.291,0.521c-0.66,0.347-1.186,0.816-1.572,1.409
				c-0.387,0.592-0.674,1.246-0.863,1.962c-0.189,0.715-0.285,1.479-0.285,2.291c0,1.591,0.43,3.174,1.287,4.748
				c-1.119,1.431-1.678,2.387-1.678,2.871c0,0.219,0.16,0.449,0.479,0.691c0.32,0.24,0.652,0.451,0.998,0.629
				c-0.514,0.373-0.93,0.848-1.25,1.428s-0.479,1.162-0.479,1.746c0,1.988,2.023,2.982,6.07,2.982c0.641,0,1.221-0.035,1.742-0.107
				s1.035-0.205,1.541-0.4c0.504-0.193,0.928-0.451,1.268-0.768c0.342-0.318,0.613-0.74,0.82-1.27
				c0.207-0.531,0.309-1.146,0.309-1.849c0-0.509-0.145-0.951-0.434-1.332c-0.291-0.381-0.668-0.679-1.131-0.89
				c-0.463-0.213-0.977-0.393-1.539-0.539c-0.564-0.147-1.127-0.27-1.686-0.362c-0.562-0.092-1.072-0.185-1.533-0.272
				c-0.463-0.088-0.84-0.201-1.131-0.336c-0.289-0.137-0.438-0.306-0.438-0.509c0-0.076,0.1-0.305,0.291-0.686l0.229,0.038
				c0.15,0.034,0.342,0.067,0.566,0.102c0.227,0.035,0.416,0.051,0.568,0.051c0.791,0,1.512-0.152,2.164-0.457
				c0.652-0.305,1.188-0.72,1.604-1.244s0.736-1.126,0.959-1.803c0.225-0.677,0.334-1.393,0.334-2.146
				c0-1.286-0.176-2.247-0.527-2.882c0.371-0.373,0.973-0.559,1.805-0.559l0.354-3.06h-0.529
				C127.557,11.893,126.525,12.244,125.91,12.946z M121.266,27.839h0.303c0.262,0.008,0.482,0.021,0.662,0.039
				c0.182,0.016,0.424,0.041,0.727,0.076c0.303,0.033,0.559,0.084,0.77,0.152c0.211,0.066,0.424,0.152,0.639,0.254
				s0.375,0.234,0.484,0.398c0.109,0.166,0.164,0.35,0.164,0.553c0,0.584-0.479,0.871-1.438,0.863H123.5
				c-1.869,0-2.803-0.25-2.803-0.748C120.697,28.97,120.887,28.44,121.266,27.839z M122.881,20.818c-0.648,0-0.973-0.927-0.973-2.78
				c0-0.296,0.004-0.544,0.008-0.743c0.004-0.198,0.016-0.436,0.037-0.71c0.02-0.274,0.055-0.503,0.102-0.686
				s0.104-0.36,0.176-0.533c0.072-0.173,0.17-0.302,0.291-0.387c0.121-0.084,0.264-0.127,0.424-0.127
				c0.646,0,0.971,1.007,0.971,3.021C123.916,19.836,123.57,20.818,122.881,20.818z M143.961,16.336
				c1.178-0.397,2.047-0.939,2.607-1.625c0.559-0.686,0.838-1.625,0.838-2.818c0-0.965-0.119-1.801-0.359-2.507
				c-0.24-0.707-0.559-1.276-0.959-1.708s-0.908-0.776-1.527-1.035c-0.619-0.259-1.25-0.432-1.893-0.521
				c-0.645-0.088-1.387-0.133-2.229-0.133h-4.684v22.854h5.604c2.246,0,3.916-0.551,5.012-1.65c1.094-1.102,1.643-2.798,1.643-5.092
				C148.014,18.918,146.662,16.996,143.961,16.336z M140.326,9.087c0.318,0,0.555,0.002,0.707,0.007
				c0.15,0.004,0.352,0.021,0.6,0.05c0.248,0.03,0.434,0.077,0.555,0.141c0.121,0.062,0.266,0.16,0.424,0.292
				c0.158,0.131,0.271,0.292,0.342,0.482c0.064,0.19,0.129,0.429,0.184,0.717s0.082,0.622,0.082,1.003
				c0,0.482-0.029,0.901-0.088,1.257c-0.062,0.355-0.162,0.688-0.312,0.997c-0.145,0.309-0.361,0.544-0.648,0.705
				c-0.285,0.161-0.641,0.241-1.062,0.241h-0.779V9.087H140.326z M143.463,23.502c-0.064,0.428-0.191,0.811-0.385,1.149
				c-0.195,0.339-0.479,0.577-0.848,0.718c-0.371,0.14-0.854,0.209-1.453,0.209h-0.428v-7.567h0.453c1.002,0,1.711,0.33,2.127,0.99
				c0.418,0.66,0.625,1.587,0.625,2.78C143.557,22.502,143.525,23.075,143.463,23.502z M159.984,16.565
				c0-1.27-0.475-2.365-1.426-3.288s-2.059-1.384-3.32-1.384c-1.809,0-3.189,0.51-4.141,1.53c-0.953,1.02-1.426,2.482-1.426,4.386
				h4.127V16.87c0-0.262,0.01-0.472,0.023-0.628c0.02-0.157,0.057-0.332,0.113-0.527c0.062-0.195,0.162-0.34,0.312-0.438
				c0.145-0.097,0.338-0.146,0.572-0.146c0.346,0,0.588,0.144,0.732,0.432c0.143,0.288,0.215,0.724,0.215,1.308v1.396
				c-0.574,0.237-1.049,0.442-1.428,0.615c-0.379,0.174-0.807,0.39-1.287,0.647c-0.48,0.259-0.873,0.509-1.18,0.749
				c-0.309,0.242-0.623,0.536-0.947,0.883c-0.324,0.348-0.576,0.709-0.758,1.085c-0.18,0.377-0.33,0.812-0.447,1.302
				c-0.119,0.491-0.178,1.024-0.178,1.6c0,0.508,0.062,0.993,0.184,1.456c0.123,0.461,0.312,0.893,0.568,1.293
				c0.256,0.402,0.611,0.723,1.066,0.959s0.984,0.355,1.59,0.355c0.826,0,1.516-0.154,2.07-0.463
				c0.557-0.31,0.955-0.849,1.199-1.619l0.416,1.715h3.889c-0.361-1.574-0.543-3.043-0.543-4.407v-7.872H159.984z M155.781,25.097
				c-0.152,0.195-0.266,0.334-0.34,0.42c-0.076,0.084-0.201,0.184-0.373,0.297c-0.172,0.115-0.348,0.172-0.523,0.172
				c-0.312,0-0.533-0.121-0.664-0.361c-0.131-0.242-0.195-0.531-0.195-0.871c0-1.354,0.699-2.599,2.096-3.731V25.097L155.781,25.097
				z M166.473,21.516l-1.527-9.242h-3.875c0.051,0.237,0.371,1.473,0.959,3.707c0.59,2.234,1.107,4.412,1.553,6.531
				c0.447,2.122,0.67,3.737,0.67,4.844c0,0.863-0.176,1.488-0.523,1.873c-0.35,0.385-0.945,0.586-1.787,0.604v2.957h0.543
				c0.59,0,1.113-0.025,1.572-0.076s0.92-0.151,1.387-0.305c0.471-0.152,0.867-0.354,1.199-0.604
				c0.334-0.248,0.629-0.588,0.891-1.016c0.264-0.427,0.455-0.929,0.58-1.505l3.6-17.012h-3.9L166.473,21.516z M188.398,5.989
				h-11.195v3.453h3.332v19.4h4.594v-19.4h3.27V5.989L188.398,5.989z M193.268,11.905c-1.758,0-3.053,0.489-3.881,1.466
				c-0.83,0.978-1.244,2.351-1.244,4.12v7.046c0,0.915,0.238,1.735,0.713,2.458c0.477,0.725,1.102,1.273,1.875,1.65
				s1.619,0.564,2.537,0.564c1.422,0,2.643-0.435,3.66-1.302c1.02-0.866,1.527-1.989,1.527-3.372V17.49
				c0-1.769-0.426-3.142-1.273-4.12C196.33,12.396,195.027,11.905,193.268,11.905z M194.24,24.589c0,0.932-0.324,1.396-0.973,1.396
				c-0.201,0-0.365-0.041-0.492-0.127c-0.127-0.084-0.215-0.209-0.266-0.373c-0.049-0.166-0.082-0.311-0.094-0.434
				c-0.016-0.123-0.021-0.276-0.021-0.463v-8.202c0-0.838,0.291-1.257,0.871-1.257c0.648,0,0.973,0.419,0.973,1.257v8.202H194.24z
				 M206.549,25.046c-0.506,0.627-0.947,0.939-1.326,0.939c-0.387,0-0.58-0.465-0.58-1.396V12.274h-4.254V25.63
				c0,0.906,0.27,1.729,0.809,2.469c0.537,0.742,1.24,1.111,2.107,1.111c0.588,0,1.17-0.17,1.742-0.508
				c0.57-0.338,1.07-0.77,1.502-1.295v1.436h4.254V12.274h-4.254V25.046z M217.189,13.619v-1.345h-4.229v16.568h4.229V17.72
				c0-0.669,0.148-1.183,0.447-1.542c0.299-0.36,0.738-0.54,1.32-0.54c0.316,0,0.871,0.042,1.65,0.127v-3.606
				c-0.52-0.084-0.902-0.127-1.146-0.127C218.594,12.032,217.838,12.562,217.189,13.619z M231.006,21.859
				c-0.309-0.423-0.613-0.802-0.922-1.136c-0.309-0.335-0.67-0.692-1.094-1.073l-0.779-0.698c-0.715-0.601-1.277-1.132-1.688-1.593
				c-0.408-0.461-0.609-0.878-0.609-1.25c0-0.271,0.082-0.512,0.244-0.724c0.164-0.211,0.395-0.317,0.689-0.317
				c0.219,0,0.428,0.062,0.631,0.185c0.201,0.123,0.373,0.264,0.512,0.425s0.281,0.375,0.428,0.642
				c0.148,0.266,0.256,0.482,0.322,0.647c0.068,0.165,0.152,0.375,0.252,0.628l3.055-1.054c-0.168-0.601-0.408-1.174-0.719-1.72
				s-0.68-1.037-1.104-1.473c-0.426-0.436-0.92-0.785-1.484-1.047c-0.564-0.262-1.152-0.394-1.768-0.394
				c-0.689,0-1.348,0.096-1.975,0.286s-1.193,0.463-1.697,0.818c-0.506,0.355-0.908,0.823-1.207,1.403
				c-0.297,0.58-0.447,1.229-0.447,1.949c0,0.932,0.256,1.777,0.77,2.539s1.221,1.536,2.121,2.323l0.695,0.597
				c0.377,0.322,0.643,0.551,0.795,0.686c0.15,0.136,0.367,0.343,0.648,0.622c0.283,0.279,0.479,0.506,0.594,0.679
				c0.113,0.174,0.223,0.381,0.328,0.623c0.104,0.241,0.158,0.476,0.158,0.704c0,0.627-0.268,0.941-0.795,0.941
				c-0.201,0-0.396-0.062-0.574-0.186c-0.182-0.121-0.328-0.254-0.441-0.398c-0.115-0.145-0.232-0.35-0.354-0.617
				c-0.123-0.267-0.209-0.47-0.26-0.61c-0.053-0.139-0.117-0.336-0.201-0.59l-3.258,1.168c0.361,1.305,1.01,2.357,1.943,3.162
				c0.936,0.803,2.045,1.205,3.332,1.205c1.33,0,2.463-0.436,3.402-1.307c0.938-0.873,1.406-1.977,1.406-3.314
				c0-0.465-0.082-0.932-0.246-1.396C231.549,22.727,231.312,22.281,231.006,21.859z"/>
		</g>
	</g>
	<g>
		<g>
			<path fill="#8E8E8E" d="M65.433,43.458c-0.039-0.129-0.11-0.277-0.214-0.447c-0.104-0.172-0.185-0.305-0.241-0.397
				c-0.057-0.092-0.161-0.229-0.312-0.412c-0.151-0.183-0.256-0.308-0.312-0.368c-0.057-0.064-0.176-0.195-0.357-0.394
				c-0.182-0.199-0.295-0.322-0.34-0.373l-1.72-1.882c-0.308-0.336-0.545-0.655-0.71-0.956c-0.165-0.302-0.248-0.604-0.248-0.916
				c0-0.515,0.153-0.904,0.459-1.169c0.306-0.266,0.717-0.395,1.234-0.395c0.53,0,0.959,0.188,1.288,0.561s0.538,0.854,0.629,1.441
				l0.014,0.096l0.87-0.273l-0.02-0.109c-0.154-0.828-0.465-1.461-0.931-1.896c-0.467-0.437-1.083-0.651-1.849-0.651
				c-0.789,0-1.435,0.229-1.938,0.688c-0.503,0.461-0.754,1.075-0.754,1.846c0,0.406,0.106,0.793,0.32,1.162
				c0.213,0.369,0.519,0.767,0.917,1.188l1.828,1.937c0.517,0.547,0.907,1.028,1.172,1.449c0.265,0.42,0.397,0.854,0.397,1.305
				c0,0.543-0.145,0.964-0.435,1.259c-0.29,0.297-0.7,0.444-1.23,0.444c-0.331,0-0.626-0.067-0.887-0.205
				c-0.261-0.138-0.47-0.325-0.629-0.563c-0.159-0.238-0.284-0.498-0.377-0.775c-0.093-0.277-0.158-0.582-0.194-0.91l-0.912,0.264
				c0.063,0.414,0.169,0.799,0.316,1.154s0.337,0.676,0.571,0.957c0.233,0.283,0.52,0.506,0.86,0.668
				c0.34,0.16,0.718,0.242,1.135,0.242c0.815,0,1.48-0.229,1.995-0.684c0.515-0.455,0.771-1.104,0.771-1.941
				c0-0.164-0.018-0.33-0.054-0.5C65.507,43.733,65.47,43.585,65.433,43.458z M69.089,38.468c-0.281,0-0.525,0.024-0.734,0.078
				c-0.209,0.053-0.411,0.151-0.608,0.301c-0.197,0.148-0.358,0.348-0.482,0.598c-0.125,0.252-0.226,0.584-0.303,1.002
				s-0.118,0.91-0.122,1.48v1.141c-0.009,1.035,0.061,1.838,0.21,2.41s0.384,0.973,0.704,1.203c0.32,0.229,0.767,0.346,1.342,0.346
				c0.294,0,0.555-0.051,0.782-0.15c0.227-0.099,0.411-0.229,0.554-0.391c0.143-0.158,0.263-0.359,0.36-0.602
				c0.097-0.24,0.169-0.482,0.214-0.726c0.045-0.239,0.082-0.517,0.108-0.825h-0.951c-0.005,0.721-0.11,1.233-0.316,1.541
				c-0.206,0.309-0.461,0.461-0.765,0.461c-0.208,0-0.38-0.029-0.517-0.089c-0.136-0.059-0.261-0.176-0.374-0.35
				c-0.113-0.173-0.196-0.433-0.248-0.775c-0.052-0.344-0.078-0.784-0.078-1.321v-1.252h3.262c0.009-0.22,0.014-0.498,0.014-0.84
				c0-1.121-0.16-1.941-0.479-2.462C70.343,38.728,69.818,38.468,69.089,38.468z M70.129,42.042h-2.256
				c0-0.469,0.003-0.813,0.01-1.035c0.007-0.221,0.031-0.477,0.071-0.77c0.041-0.291,0.105-0.498,0.194-0.621
				s0.213-0.23,0.374-0.322c0.161-0.09,0.366-0.137,0.615-0.137c0.154,0,0.29,0.033,0.408,0.096c0.118,0.064,0.21,0.15,0.279,0.26
				c0.068,0.109,0.125,0.238,0.17,0.388c0.045,0.147,0.076,0.31,0.091,0.481c0.016,0.174,0.028,0.354,0.038,0.543
				c0.009,0.189,0.011,0.377,0.007,0.564C70.125,41.675,70.125,41.86,70.129,42.042z M74.745,38.468
				c-0.281,0-0.525,0.024-0.734,0.078c-0.209,0.053-0.411,0.151-0.608,0.301c-0.197,0.147-0.358,0.348-0.482,0.598
				c-0.125,0.252-0.226,0.584-0.302,1.002c-0.077,0.418-0.118,0.91-0.123,1.48v1.141c-0.009,1.035,0.061,1.838,0.21,2.41
				c0.15,0.572,0.384,0.973,0.704,1.203c0.32,0.229,0.767,0.346,1.342,0.346c0.294,0,0.555-0.051,0.782-0.15
				c0.227-0.099,0.411-0.229,0.554-0.391c0.143-0.158,0.263-0.359,0.36-0.602c0.098-0.24,0.169-0.482,0.214-0.726
				c0.045-0.239,0.082-0.517,0.109-0.825h-0.952c-0.005,0.721-0.11,1.233-0.316,1.541c-0.207,0.309-0.461,0.461-0.765,0.461
				c-0.208,0-0.38-0.029-0.516-0.089c-0.136-0.059-0.261-0.176-0.374-0.35c-0.113-0.173-0.196-0.433-0.248-0.775
				c-0.052-0.343-0.078-0.784-0.078-1.321v-1.252h3.262c0.009-0.22,0.014-0.498,0.014-0.84c0-1.121-0.16-1.941-0.479-2.462
				S75.475,38.468,74.745,38.468z M75.784,42.042h-2.256c0-0.469,0.003-0.813,0.01-1.035c0.007-0.221,0.03-0.477,0.071-0.77
				c0.041-0.291,0.105-0.498,0.194-0.621c0.088-0.123,0.213-0.23,0.374-0.322c0.161-0.09,0.366-0.137,0.615-0.137
				c0.154,0,0.29,0.033,0.408,0.096c0.118,0.064,0.211,0.15,0.279,0.26c0.068,0.111,0.125,0.238,0.17,0.388
				c0.045,0.147,0.076,0.31,0.092,0.481c0.016,0.174,0.028,0.354,0.037,0.543c0.009,0.189,0.011,0.377,0.007,0.564
				C75.78,41.675,75.78,41.86,75.784,42.042z M85.782,40.401H82.18v-5.324h-1.033v11.764h1.033v-5.715h3.602v5.715h1.033V35.077
				h-1.033V40.401z M92.602,45.856c-0.021-0.314-0.03-0.615-0.03-0.902v-3.938c0-0.25-0.017-0.484-0.048-0.703
				c-0.031-0.219-0.093-0.445-0.184-0.678c-0.09-0.232-0.209-0.433-0.356-0.599s-0.349-0.303-0.602-0.409
				c-0.254-0.107-0.546-0.16-0.877-0.16c-0.594,0-1.073,0.203-1.438,0.61c-0.365,0.408-0.574,0.972-0.629,1.687h1.061v-0.049
				c0.019-0.332,0.063-0.609,0.136-0.83c0.073-0.221,0.163-0.381,0.271-0.479c0.109-0.099,0.211-0.164,0.307-0.196
				c0.095-0.035,0.203-0.054,0.326-0.054c0.117,0,0.217,0.015,0.299,0.039c0.082,0.022,0.169,0.088,0.262,0.188
				c0.093,0.1,0.169,0.24,0.228,0.42c0.06,0.18,0.108,0.436,0.149,0.766s0.062,0.729,0.062,1.193v0.068
				c-0.349,0.145-0.667,0.29-0.955,0.434c-0.288,0.145-0.538,0.277-0.751,0.404c-0.213,0.125-0.4,0.256-0.564,0.396
				c-0.163,0.139-0.299,0.262-0.408,0.368c-0.107,0.105-0.199,0.229-0.274,0.369s-0.132,0.256-0.17,0.353s-0.068,0.215-0.089,0.354
				c-0.02,0.142-0.033,0.256-0.037,0.347c-0.004,0.088-0.007,0.204-0.007,0.353c0,0.543,0.163,0.979,0.489,1.315
				c0.326,0.334,0.7,0.502,1.121,0.502c0.291,0,0.596-0.103,0.914-0.302c0.32-0.2,0.588-0.491,0.807-0.875l0.129,0.99h0.951
				l-0.027-0.26C92.644,46.413,92.622,46.171,92.602,45.856z M91.538,45.173c-0.149,0.293-0.356,0.531-0.622,0.719
				c-0.266,0.187-0.527,0.279-0.785,0.279c-0.222,0-0.414-0.094-0.578-0.283c-0.162-0.188-0.244-0.479-0.244-0.871
				c0-0.219,0.035-0.428,0.105-0.625c0.07-0.198,0.158-0.375,0.266-0.53c0.105-0.153,0.265-0.326,0.475-0.517
				c0.211-0.188,0.412-0.354,0.602-0.496c0.191-0.141,0.451-0.327,0.782-0.561L91.538,45.173L91.538,45.173z M94.196,46.841h1.02
				V35.077h-1.02V46.841z M101.076,40.905c-0.024-0.336-0.063-0.598-0.115-0.783c-0.052-0.188-0.13-0.4-0.234-0.643
				c-0.104-0.243-0.232-0.426-0.384-0.551c-0.152-0.125-0.344-0.234-0.574-0.324c-0.231-0.092-0.496-0.137-0.796-0.137
				c-0.299,0-0.563,0.045-0.795,0.137c-0.231,0.09-0.423,0.199-0.575,0.324c-0.151,0.125-0.279,0.309-0.383,0.551
				c-0.105,0.242-0.184,0.455-0.234,0.643c-0.053,0.186-0.092,0.447-0.116,0.783c-0.024,0.334-0.04,0.598-0.044,0.791
				c-0.005,0.195-0.007,0.475-0.007,0.838v0.424c0,0.307,0.001,0.535,0.003,0.691c0.002,0.154,0.01,0.369,0.021,0.645
				c0.011,0.277,0.03,0.49,0.055,0.641c0.025,0.152,0.062,0.339,0.112,0.562c0.049,0.223,0.109,0.395,0.18,0.52
				c0.071,0.123,0.16,0.258,0.269,0.406c0.109,0.147,0.233,0.26,0.374,0.336c0.141,0.074,0.307,0.139,0.5,0.188
				c0.191,0.054,0.406,0.08,0.642,0.08c0.236,0,0.45-0.026,0.643-0.08c0.192-0.051,0.358-0.114,0.499-0.188
				c0.141-0.076,0.266-0.188,0.374-0.336c0.108-0.148,0.198-0.283,0.269-0.406c0.071-0.123,0.131-0.297,0.18-0.52
				c0.051-0.224,0.088-0.41,0.113-0.562c0.024-0.149,0.043-0.362,0.054-0.641c0.011-0.275,0.019-0.49,0.021-0.645
				c0.002-0.156,0.004-0.385,0.004-0.691v-0.424c0-0.363-0.003-0.643-0.008-0.838C101.116,41.503,101.102,41.239,101.076,40.905z
				 M100.108,42.958c0,1.285-0.075,2.17-0.225,2.652c-0.15,0.484-0.453,0.725-0.911,0.725s-0.761-0.24-0.911-0.725
				c-0.148-0.482-0.224-1.367-0.224-2.652v-0.424c0-0.438,0.005-0.801,0.014-1.094c0.009-0.291,0.028-0.574,0.058-0.85
				c0.029-0.277,0.068-0.496,0.119-0.656c0.049-0.162,0.117-0.307,0.203-0.432s0.189-0.216,0.31-0.267
				c0.12-0.054,0.265-0.08,0.432-0.08c0.167,0,0.312,0.026,0.432,0.08c0.12,0.051,0.222,0.142,0.306,0.267s0.152,0.27,0.204,0.434
				c0.052,0.164,0.093,0.383,0.122,0.654c0.029,0.27,0.049,0.555,0.059,0.85c0.009,0.297,0.014,0.662,0.014,1.094v0.424H100.108z
				 M105.375,38.468c-0.326,0-0.641,0.08-0.944,0.238c-0.304,0.159-0.563,0.396-0.782,0.719v-0.773h-1.02v8.189h1.02v-6.787
				c0.205-0.256,0.428-0.457,0.67-0.605s0.471-0.223,0.684-0.223c0.258,0,0.467,0.094,0.625,0.277
				c0.158,0.186,0.238,0.479,0.238,0.885v6.453h1.033v-6.433c0-0.614-0.153-1.092-0.459-1.435
				C106.132,38.638,105.778,38.468,105.375,38.468z M112.993,39.015c-0.108,0.137-0.195,0.256-0.262,0.354
				c-0.065,0.101-0.141,0.226-0.228,0.375c-0.271-0.424-0.552-0.739-0.839-0.952c-0.288-0.211-0.649-0.318-1.084-0.318
				c-0.331,0-0.631,0.062-0.9,0.186c-0.269,0.124-0.492,0.285-0.666,0.484c-0.176,0.201-0.322,0.432-0.442,0.695
				c-0.12,0.262-0.205,0.522-0.255,0.789c-0.05,0.264-0.074,0.528-0.074,0.793c0,0.496,0.078,0.975,0.234,1.436
				c0.156,0.461,0.395,0.836,0.717,1.127c-0.005,0.01-0.032,0.049-0.082,0.117c-0.05,0.068-0.09,0.123-0.122,0.164
				c-0.032,0.041-0.077,0.104-0.136,0.191c-0.059,0.086-0.109,0.161-0.15,0.229c-0.04,0.066-0.088,0.145-0.143,0.232
				c-0.054,0.09-0.1,0.172-0.136,0.245c-0.036,0.076-0.071,0.152-0.104,0.231c-0.035,0.08-0.06,0.156-0.075,0.229
				c-0.017,0.069-0.024,0.135-0.024,0.192c0,0.088,0.094,0.176,0.283,0.269c0.188,0.092,0.357,0.157,0.51,0.2
				c0.15,0.043,0.261,0.072,0.329,0.086c-0.427,0.22-0.786,0.507-1.081,0.861c-0.295,0.354-0.441,0.764-0.441,1.223
				c0,0.718,0.904,1.074,2.712,1.074c0.14,0,0.278-0.004,0.415-0.011c0.135-0.008,0.3-0.024,0.492-0.057
				c0.192-0.029,0.371-0.068,0.533-0.119c0.164-0.049,0.33-0.121,0.5-0.211c0.17-0.092,0.313-0.199,0.432-0.322
				c0.117-0.123,0.214-0.274,0.289-0.461c0.074-0.186,0.111-0.391,0.111-0.618c0-0.25-0.059-0.474-0.176-0.666
				c-0.118-0.193-0.294-0.356-0.527-0.492s-0.483-0.246-0.751-0.334c-0.268-0.09-0.587-0.172-0.958-0.25
				c-0.104-0.022-0.25-0.054-0.436-0.09c-0.598-0.123-0.969-0.209-1.114-0.261c-0.146-0.049-0.206-0.127-0.184-0.231
				c0.063-0.31,0.22-0.701,0.469-1.176c0.263,0.108,0.589,0.163,0.979,0.163c0.33,0,0.629-0.053,0.896-0.159s0.492-0.254,0.673-0.44
				c0.181-0.187,0.332-0.408,0.452-0.666c0.12-0.259,0.207-0.531,0.262-0.824c0.055-0.291,0.082-0.603,0.082-0.93
				c0-0.343-0.086-0.755-0.259-1.236c0.141-0.16,0.304-0.301,0.489-0.42c0.186-0.121,0.365-0.197,0.537-0.23v-0.99
				c-0.136,0.031-0.268,0.092-0.395,0.182C113.22,38.765,113.104,38.878,112.993,39.015z M109.813,46.507l1.454,0.314
				c0.386,0.072,0.662,0.191,0.83,0.357c0.167,0.168,0.251,0.412,0.251,0.736c0,0.588-0.601,0.881-1.801,0.881h-0.089
				c-0.158,0-0.278,0-0.359-0.002c-0.082-0.004-0.202-0.011-0.361-0.021c-0.158-0.012-0.281-0.031-0.37-0.059
				c-0.089-0.029-0.183-0.062-0.285-0.109c-0.103-0.045-0.177-0.105-0.225-0.184c-0.048-0.08-0.071-0.17-0.071-0.273
				c0-0.242,0.114-0.533,0.344-0.875C109.358,46.931,109.586,46.675,109.813,46.507z M111.917,42.022
				c-0.016,0.16-0.051,0.342-0.104,0.547c-0.055,0.205-0.127,0.383-0.219,0.533c-0.09,0.15-0.219,0.277-0.387,0.383
				s-0.365,0.156-0.592,0.156s-0.424-0.051-0.594-0.156s-0.301-0.232-0.392-0.379c-0.091-0.148-0.164-0.326-0.221-0.533
				c-0.057-0.207-0.092-0.391-0.105-0.547c-0.014-0.158-0.021-0.32-0.021-0.49c0-0.127,0.006-0.258,0.018-0.389
				c0.011-0.133,0.031-0.289,0.061-0.469s0.076-0.346,0.14-0.5c0.063-0.152,0.142-0.297,0.234-0.435
				c0.092-0.137,0.216-0.243,0.367-0.323c0.151-0.08,0.323-0.119,0.513-0.119c0.227,0,0.426,0.059,0.596,0.178
				c0.17,0.117,0.299,0.26,0.387,0.424c0.088,0.164,0.16,0.355,0.218,0.576c0.056,0.223,0.092,0.414,0.104,0.576
				c0.014,0.16,0.021,0.322,0.021,0.479C111.941,41.7,111.934,41.862,111.917,42.022z M121.283,45.856
				c-0.021-0.314-0.031-0.615-0.031-0.902v-3.938c0-0.25-0.016-0.484-0.047-0.703s-0.094-0.445-0.184-0.678
				c-0.092-0.232-0.209-0.433-0.357-0.599c-0.146-0.166-0.348-0.303-0.602-0.409c-0.254-0.107-0.545-0.16-0.877-0.16
				c-0.594,0-1.072,0.203-1.438,0.61c-0.367,0.408-0.574,0.972-0.631,1.687h1.062v-0.049c0.02-0.332,0.062-0.609,0.137-0.83
				c0.072-0.221,0.162-0.381,0.271-0.479c0.107-0.099,0.211-0.164,0.307-0.196c0.094-0.035,0.203-0.054,0.326-0.054
				c0.117,0,0.217,0.015,0.299,0.039c0.082,0.022,0.168,0.088,0.262,0.188c0.092,0.1,0.168,0.24,0.227,0.42s0.109,0.436,0.15,0.766
				s0.061,0.729,0.061,1.193v0.068c-0.348,0.145-0.666,0.29-0.955,0.434c-0.287,0.145-0.537,0.277-0.75,0.404
				c-0.213,0.125-0.402,0.256-0.564,0.396c-0.162,0.139-0.299,0.262-0.406,0.368c-0.109,0.105-0.201,0.229-0.275,0.369
				s-0.131,0.256-0.17,0.353s-0.068,0.215-0.088,0.354c-0.021,0.141-0.033,0.256-0.037,0.347c-0.006,0.088-0.008,0.204-0.008,0.353
				c0,0.543,0.164,0.979,0.49,1.315c0.324,0.334,0.697,0.502,1.119,0.502c0.291,0,0.598-0.103,0.914-0.302
				c0.32-0.2,0.59-0.491,0.809-0.875l0.129,0.99h0.951l-0.027-0.26C121.324,46.413,121.303,46.171,121.283,45.856z M120.219,45.173
				c-0.148,0.293-0.355,0.531-0.621,0.719c-0.266,0.187-0.527,0.279-0.785,0.279c-0.223,0-0.414-0.094-0.578-0.283
				c-0.162-0.188-0.244-0.479-0.244-0.871c0-0.219,0.035-0.428,0.105-0.625c0.07-0.198,0.158-0.375,0.264-0.53
				c0.107-0.153,0.266-0.326,0.477-0.517c0.211-0.189,0.412-0.354,0.602-0.496c0.189-0.141,0.451-0.327,0.781-0.561V45.173
				L120.219,45.173z M124.27,35.747h-1.02v2.904h-1.109v0.574h1.109v5.682c0,0.242,0.006,0.447,0.02,0.619
				c0.014,0.17,0.049,0.354,0.105,0.549c0.057,0.197,0.133,0.354,0.229,0.473c0.098,0.119,0.236,0.217,0.418,0.297
				c0.184,0.08,0.398,0.119,0.652,0.119c0.285,0,0.58-0.039,0.885-0.115v-0.705c-0.178,0.037-0.377,0.056-0.6,0.056
				c-0.131,0-0.24-0.021-0.328-0.063c-0.09-0.043-0.156-0.096-0.205-0.16c-0.047-0.064-0.084-0.162-0.107-0.291
				s-0.041-0.25-0.045-0.361c-0.004-0.113-0.006-0.266-0.006-0.463v-5.633h1.305v-0.574h-1.305v-2.906H124.27z M129.51,46.841h1.02
				v-8.188h-1.02V46.841z M129.51,36.778h1.02v-1.223h-1.02V36.778z M133.777,35.747h-1.02v2.904h-1.107v0.574h1.107v5.682
				c0,0.242,0.008,0.447,0.02,0.619c0.016,0.17,0.051,0.354,0.105,0.549c0.057,0.197,0.133,0.354,0.23,0.473
				s0.236,0.217,0.418,0.297s0.398,0.119,0.652,0.119c0.285,0,0.58-0.039,0.885-0.115v-0.705c-0.178,0.037-0.377,0.056-0.6,0.056
				c-0.131,0-0.24-0.021-0.33-0.063c-0.088-0.043-0.156-0.096-0.203-0.16s-0.084-0.162-0.109-0.291
				c-0.023-0.129-0.039-0.25-0.043-0.361c-0.006-0.113-0.008-0.266-0.008-0.463v-5.633h1.305v-0.574h-1.305v-2.906H133.777z
				 M140.004,43.843c-0.086-0.152-0.213-0.322-0.383-0.512c-0.17-0.191-0.311-0.335-0.422-0.439
				c-0.111-0.102-0.271-0.243-0.48-0.428l-0.645-0.561c-0.332-0.281-0.584-0.547-0.758-0.793c-0.176-0.246-0.262-0.506-0.262-0.779
				c0-0.328,0.09-0.596,0.268-0.803c0.18-0.207,0.42-0.311,0.725-0.311c0.236,0,0.445,0.092,0.629,0.276s0.318,0.392,0.408,0.617
				c0.088,0.229,0.152,0.472,0.193,0.726l0.904-0.279c-0.068-0.283-0.158-0.541-0.27-0.775c-0.111-0.236-0.248-0.455-0.41-0.658
				c-0.164-0.201-0.365-0.359-0.605-0.475c-0.24-0.113-0.508-0.17-0.803-0.17c-0.621,0-1.117,0.17-1.488,0.51
				c-0.371,0.338-0.557,0.816-0.557,1.432c0,0.387,0.113,0.736,0.344,1.049c0.229,0.312,0.566,0.666,1.016,1.062l0.592,0.52
				c0.928,0.82,1.393,1.492,1.393,2.019c0,0.373-0.09,0.67-0.268,0.89c-0.18,0.219-0.449,0.327-0.807,0.327
				c-0.195,0-0.381-0.057-0.561-0.172c-0.182-0.112-0.334-0.265-0.465-0.45c-0.135-0.188-0.244-0.373-0.338-0.562
				c-0.094-0.186-0.172-0.381-0.234-0.579l-0.781,0.267c0.158,0.647,0.439,1.182,0.84,1.604s0.9,0.633,1.498,0.633
				c0.617,0,1.115-0.178,1.5-0.529c0.383-0.354,0.574-0.836,0.574-1.447c-0.006-0.223-0.043-0.44-0.113-0.656
				C140.168,44.181,140.09,43.997,140.004,43.843z M148.395,40.058c-0.061-0.268-0.139-0.5-0.234-0.697
				c-0.096-0.199-0.189-0.354-0.285-0.465c-0.096-0.113-0.203-0.201-0.326-0.268c-0.123-0.068-0.234-0.109-0.334-0.129
				c-0.1-0.021-0.211-0.031-0.332-0.031c-0.689,0-1.236,0.317-1.645,0.957v-0.773h-1.02v10.822h1.02v-3.404
				c0.213,0.314,0.455,0.553,0.73,0.715c0.271,0.16,0.553,0.242,0.84,0.242c0.193,0,0.363-0.02,0.51-0.059
				c0.145-0.039,0.303-0.137,0.475-0.293c0.172-0.158,0.312-0.373,0.422-0.646s0.201-0.664,0.275-1.172
				c0.074-0.51,0.111-1.115,0.111-1.822v-0.65c0-0.492-0.02-0.936-0.057-1.332C148.506,40.655,148.455,40.323,148.395,40.058z
				 M147.582,43.026c0,0.502-0.012,0.939-0.033,1.312c-0.023,0.375-0.061,0.676-0.113,0.905c-0.051,0.229-0.104,0.416-0.156,0.562
				c-0.051,0.145-0.117,0.248-0.203,0.311c-0.084,0.064-0.156,0.105-0.225,0.123c-0.062,0.02-0.146,0.027-0.248,0.027
				c-0.426,0-0.881-0.271-1.365-0.812v-5.4c0.203-0.246,0.428-0.444,0.666-0.598c0.24-0.154,0.461-0.23,0.666-0.23
				c0.09,0,0.164,0.007,0.223,0.015c0.057,0.011,0.125,0.035,0.203,0.076s0.145,0.103,0.191,0.185
				c0.051,0.082,0.105,0.198,0.158,0.354c0.053,0.152,0.096,0.338,0.129,0.557c0.031,0.219,0.057,0.494,0.078,0.826
				c0.02,0.334,0.029,0.715,0.029,1.143V43.026L147.582,43.026z M153.311,45.44c-0.203,0.254-0.428,0.457-0.67,0.605
				c-0.242,0.146-0.471,0.221-0.684,0.221c-0.26,0-0.469-0.092-0.625-0.275c-0.158-0.186-0.238-0.48-0.238-0.887v-6.453h-1.031
				v6.434c0,0.615,0.152,1.092,0.457,1.432c0.307,0.341,0.66,0.511,1.064,0.511c0.324,0,0.641-0.08,0.943-0.24
				c0.305-0.157,0.564-0.397,0.781-0.717v0.771h1.021v-8.188h-1.021v6.788H153.311z M157.062,39.808v-1.156h-1.02v8.189h1.02v-6.111
				c0-0.801,0.518-1.203,1.557-1.203c0.053,0,0.105,0.01,0.156,0.027v-1.031c-0.354,0.01-0.697,0.119-1.027,0.332
				C157.418,39.065,157.189,39.384,157.062,39.808z M161.959,38.468c-0.281,0-0.525,0.024-0.734,0.078
				c-0.207,0.053-0.41,0.151-0.605,0.301c-0.197,0.148-0.357,0.348-0.482,0.598c-0.125,0.252-0.225,0.584-0.303,1.002
				c-0.076,0.418-0.117,0.91-0.123,1.48v1.141c-0.008,1.035,0.061,1.838,0.211,2.41c0.148,0.572,0.385,0.973,0.705,1.203
				c0.316,0.229,0.766,0.346,1.342,0.346c0.295,0,0.555-0.051,0.781-0.15c0.225-0.099,0.412-0.229,0.555-0.391
				c0.143-0.158,0.262-0.359,0.359-0.602c0.098-0.24,0.168-0.482,0.215-0.726c0.045-0.239,0.08-0.517,0.105-0.825h-0.951
				c-0.004,0.721-0.107,1.233-0.314,1.541c-0.205,0.309-0.461,0.461-0.764,0.461c-0.209,0-0.383-0.029-0.52-0.089
				c-0.135-0.059-0.26-0.176-0.373-0.35c-0.113-0.173-0.195-0.433-0.248-0.775s-0.078-0.784-0.078-1.321v-1.252H164
				c0.01-0.22,0.014-0.498,0.014-0.84c0-1.121-0.16-1.941-0.48-2.462C163.213,38.728,162.689,38.468,161.959,38.468z M163,42.042
				h-2.258c0-0.469,0.004-0.813,0.012-1.035c0.006-0.221,0.029-0.477,0.07-0.77c0.041-0.291,0.105-0.498,0.193-0.621
				c0.09-0.123,0.213-0.23,0.375-0.322c0.16-0.09,0.365-0.137,0.615-0.137c0.15,0,0.289,0.033,0.406,0.096
				c0.117,0.064,0.211,0.15,0.277,0.26c0.068,0.111,0.125,0.238,0.17,0.388s0.076,0.31,0.094,0.481
				c0.016,0.174,0.027,0.354,0.035,0.543c0.012,0.189,0.014,0.377,0.01,0.564C162.994,41.675,162.994,41.86,163,42.042z
				 M169.23,43.843c-0.086-0.152-0.215-0.322-0.385-0.512c-0.17-0.191-0.309-0.335-0.42-0.439c-0.111-0.102-0.271-0.243-0.48-0.428
				l-0.645-0.561c-0.332-0.281-0.584-0.547-0.758-0.793c-0.178-0.246-0.264-0.506-0.264-0.779c0-0.328,0.092-0.596,0.27-0.803
				c0.18-0.207,0.42-0.311,0.725-0.311c0.234,0,0.445,0.092,0.629,0.276s0.318,0.392,0.408,0.617
				c0.088,0.229,0.152,0.472,0.193,0.726l0.902-0.279c-0.066-0.283-0.156-0.541-0.27-0.775c-0.111-0.236-0.248-0.455-0.41-0.658
				c-0.164-0.201-0.365-0.359-0.604-0.475c-0.24-0.113-0.51-0.17-0.805-0.17c-0.621,0-1.115,0.17-1.486,0.51
				c-0.371,0.338-0.559,0.816-0.559,1.432c0,0.387,0.113,0.736,0.342,1.049c0.23,0.312,0.568,0.666,1.02,1.062l0.592,0.52
				c0.928,0.82,1.393,1.492,1.393,2.019c0,0.373-0.09,0.67-0.27,0.89c-0.178,0.219-0.447,0.327-0.805,0.327
				c-0.195,0-0.381-0.057-0.562-0.172c-0.18-0.112-0.334-0.265-0.465-0.45c-0.133-0.188-0.244-0.373-0.338-0.562
				c-0.092-0.186-0.17-0.381-0.234-0.579l-0.779,0.267c0.156,0.647,0.438,1.182,0.84,1.604c0.4,0.422,0.898,0.633,1.498,0.633
				c0.617,0,1.115-0.178,1.5-0.529c0.383-0.354,0.574-0.836,0.574-1.447c-0.008-0.223-0.043-0.44-0.113-0.656
				C169.395,44.181,169.316,43.997,169.23,43.843z M172.234,35.747h-1.02v2.904h-1.107v0.574h1.107v5.682
				c0,0.242,0.006,0.447,0.02,0.619c0.014,0.17,0.049,0.354,0.105,0.549c0.057,0.197,0.135,0.354,0.23,0.473
				c0.098,0.119,0.236,0.217,0.418,0.297s0.398,0.119,0.652,0.119c0.285,0,0.58-0.039,0.883-0.115v-0.705
				c-0.176,0.037-0.375,0.056-0.598,0.056c-0.131,0-0.242-0.021-0.33-0.063s-0.156-0.096-0.203-0.16
				c-0.049-0.064-0.084-0.162-0.109-0.291c-0.023-0.129-0.037-0.25-0.045-0.361c-0.004-0.113-0.006-0.266-0.006-0.463v-5.633h1.307
				v-0.574h-1.307v-2.906H172.234z M174.855,45.618v1.223h1.256v-1.223H174.855z M175.623,44.188l0.408-9.098h-1.318l0.543,9.098
				H175.623z"/>
		</g>
	</g>
</g>
</svg>
